<svg width="9" height="17" viewBox="0 0 9 17" fill="none" xmlns="http://www.w3.org/2000/svg">
<path opacity="0.25" d="M1.04904e-05 1.64205e-05C0.24912 -0.00189715 0.500092 0.164077 0.500092 0.164077C0.500092 0.164077 1.08656 0.372133 1.19503 0.606013L3.04673 4.52041L7.19014 5.14789C7.43659 5.18492 7.66817 5.29319 7.85866 5.46041C8.04915 5.62764 8.19093 5.84716 8.26795 6.0941C8.34497 6.34103 8.35415 6.60553 8.29445 6.85763C8.23475 7.10973 8.10855 7.33936 7.93016 7.52051L4.9301 10.5676L5.63845 14.8713C5.68058 15.1269 5.65331 15.3898 5.55972 15.6301C5.46613 15.8704 5.30995 16.0787 5.10883 16.2313C4.9077 16.3839 4.66966 16.4748 4.4216 16.4937C4.17354 16.5126 3.92535 16.4588 3.70508 16.3383L1.04904e-05 14.3064V1.64205e-05Z" fill="black"/>
</svg>
